# xmcd
# Track frame offsets:
# 150
# 12242
# 26475
# 44854
# 62745
# 80802
# 98264
# 115473
# 135799
# 149903
# 181853
# 194952
# 206756
# 221218
# 239416
# 240896
# 259269
# 276829
#
# Disc length: 3961 seconds
# Revision: 0
# Processed by: cddbd v1.4PL0 Copyright (c) Steve Scherf et al.
# Submitted via: VisiTrax 2.9.5.181 - For more info visit www.synapsa.com
#
DISCID=160f7712
DTITLE=Alan Jackson - Greatest Hits Volume II (D#1)
DYEAR=1900
DGENRE=Misc
TTITLE0=Little Bitty
TTITLE1=Everything I Love
TTITLE2=Who's Cheatin' Who
TTITLE3=There Goes
TTITLE4=I'll Go On Loving You
TTITLE5=Right On The Money
TTITLE6=Gone Crazy
TTITLE7=Little Man
TTITLE8=Pop A Top
TTITLE9=The Blues Man
TTITLE10=It Must Be Love
TTITLE11=Www.Memory
TTITLE12=When Somebody Loves You
TTITLE13=Where I Come From
TTITLE14=Where Were You (When The World Stopped Turning)
TTITLE15=Drive (For Daddy Gene)
TTITLE16=It's Five O'Clock Somewhere (With Jimmy Buffett)
TTITLE17=Remember When
EXTD=
EXTT0=
EXTT1=
EXTT2=
EXTT3=
EXTT4=
EXTT5=
EXTT6=
EXTT7=
EXTT8=
EXTT9=
EXTT10=
EXTT11=
EXTT12=
EXTT13=
EXTT14=
EXTT15=
EXTT16=
EXTT17=
PLAYORDER=
